<?xml version="1.0" encoding="UTF-8"?>
<!-- Generated by Pixelmator Pro 3.2.2 -->
<svg width="171" height="39" viewBox="0 0 171 39" xmlns="http://www.w3.org/2000/svg" xmlns:xlink="http://www.w3.org/1999/xlink">
    <path id="NVS" fill="#000000" fill-rule="evenodd" stroke="none" d="M 6.892578 39 L 21.962891 5.119141 C 21.999557 5.045807 22.017578 4.863647 22.017578 4.570313 C 22.017578 4.313644 21.972527 4.093491 21.880859 3.910156 C 21.789192 3.726822 21.61409 3.634766 21.357422 3.634766 L 0.623047 3.634766 C 0.47638 3.634766 0.402344 3.506668 0.402344 3.25 C 0.402344 2.956665 0.458359 2.608414 0.568359 2.205078 C 0.67836 1.801743 0.824478 1.41745 1.007813 1.050781 C 1.15448 0.757446 1.300598 0.528282 1.447266 0.363281 C 1.593933 0.19828 1.685989 0.115234 1.722656 0.115234 L 56.886719 0.115234 L 58.373047 0.115234 L 93.408203 0.115234 L 85.982422 16.779297 C 85.909088 16.889297 85.77198 17.356636 85.570313 18.181641 C 85.368645 19.006645 85.13047 20.024372 84.855469 21.234375 C 84.580467 22.444378 84.295288 23.756296 84.001953 25.167969 C 83.708618 26.579634 83.434402 27.94562 83.177734 29.265625 C 82.921066 30.58563 82.709923 31.749475 82.544922 32.757813 C 82.379921 33.766151 82.296875 34.471664 82.296875 34.875 C 82.296875 35.095001 82.334869 35.205078 82.408203 35.205078 C 82.554871 35.205078 82.957184 34.764771 83.617188 33.884766 C 84.277191 33.004761 85.06575 31.905941 85.982422 30.585938 C 86.899094 29.265932 87.880775 27.816906 88.925781 26.240234 C 89.970787 24.663563 90.941513 23.196516 91.839844 21.839844 C 92.738182 20.483181 93.49971 19.319317 94.123047 18.347656 C 94.746384 17.375988 95.094635 16.83461 95.167969 16.724609 L 102.591797 0.115234 L 112.052734 0.115234 L 116.617188 0.115234 L 168.757813 0.115234 C 169.234482 0.225235 169.656769 0.499451 170.023438 0.939453 C 170.390106 1.379456 170.572266 1.875778 170.572266 2.425781 C 170.572266 2.755783 170.49823 3.048019 170.351563 3.304688 L 166.777344 11.335938 L 152.751953 11.335938 L 155.392578 5.449219 C 155.429245 5.302551 155.456268 5.192474 155.474609 5.119141 C 155.492935 5.045807 155.501953 5.009766 155.501953 5.009766 C 155.501953 4.716431 155.420853 4.433205 155.255859 4.158203 C 155.090851 3.883202 154.861694 3.708099 154.568359 3.634766 L 148.626953 3.634766 C 148.260284 3.634766 147.810974 3.836899 147.279297 4.240234 C 146.747635 4.64357 146.390366 5.045883 146.207031 5.449219 L 141.642578 15.625 C 141.532578 15.918335 141.476563 16.17453 141.476563 16.394531 C 141.476563 16.651199 141.550598 16.871353 141.697266 17.054688 C 141.843933 17.238022 142.100128 17.330078 142.466797 17.330078 L 159.792969 17.330078 C 160.636307 17.330078 161.332809 17.559242 161.882813 18.017578 C 162.432816 18.475914 162.707031 19.07135 162.707031 19.804688 C 162.707031 20.24469 162.596954 20.703018 162.376953 21.179688 L 155.832031 35.865234 C 155.685364 36.195236 155.438187 36.534477 155.089844 36.882813 C 154.741516 37.231148 154.348206 37.561378 153.908203 37.873047 C 153.468201 38.184715 153.027893 38.44091 152.587891 38.642578 C 152.147888 38.844246 151.761642 38.963333 151.431641 39 L 120.248047 39 C 119.734711 38.926666 119.303406 38.652451 118.955078 38.175781 C 118.606735 37.699112 118.431641 37.184769 118.431641 36.634766 C 118.431641 36.414764 118.487656 36.158569 118.597656 35.865234 L 122.613281 26.900391 L 136.636719 26.900391 L 133.613281 33.720703 C 133.539948 33.940704 133.501953 34.122864 133.501953 34.269531 C 133.501953 34.562866 133.575989 34.830025 133.722656 35.068359 C 133.869324 35.306694 134.071457 35.443802 134.328125 35.480469 L 140.322266 35.480469 C 140.688934 35.480469 141.147263 35.278336 141.697266 34.875 C 142.247269 34.471664 142.613541 34.087372 142.796875 33.720703 L 147.748047 22.609375 C 147.858047 22.389374 147.912109 22.151199 147.912109 21.894531 C 147.912109 21.234528 147.563858 20.904297 146.867188 20.904297 L 129.542969 20.904297 C 128.699631 20.904297 128.012146 20.684143 127.480469 20.244141 C 126.948807 19.804138 126.681641 19.217712 126.681641 18.484375 C 126.681641 18.044373 126.791718 17.568024 127.011719 17.054688 L 132.292969 5.119141 C 132.329636 5.082474 132.347656 4.900314 132.347656 4.570313 C 132.347656 4.313644 132.302597 4.093491 132.210938 3.910156 C 132.119263 3.726822 131.944168 3.634766 131.6875 3.634766 L 115.044922 3.634766 L 108.806641 17.605469 C 108.69664 17.82547 108.258286 18.503956 107.488281 19.640625 C 106.718277 20.777294 105.792603 22.134266 104.710938 23.710938 C 103.629257 25.287609 102.44545 26.963848 101.162109 28.742188 C 99.878761 30.520527 98.669876 32.160725 97.533203 33.664063 C 96.39653 35.1674 95.405838 36.423302 94.5625 37.431641 C 93.719162 38.439976 93.186798 38.963333 92.966797 39 L 68.988281 39 C 68.841614 38.963333 68.767578 38.559067 68.767578 37.789063 C 68.767578 37.055725 68.82164 36.075985 68.931641 34.847656 C 69.041641 33.61932 69.189713 32.298389 69.373047 30.886719 C 69.556381 29.475054 69.767525 28.027966 70.005859 26.542969 C 70.244194 25.057964 70.462395 23.691984 70.664063 22.445313 C 70.86573 21.198643 71.049843 20.144875 71.214844 19.283203 C 71.379845 18.421532 71.498932 17.880157 71.572266 17.660156 L 77.126953 5.119141 C 77.16362 5.082474 77.181641 4.900314 77.181641 4.570313 C 77.181641 4.313644 77.136589 4.093491 77.044922 3.910156 C 76.953255 3.726822 76.780106 3.634766 76.523438 3.634766 L 59.851563 3.634766 L 44.126953 39 L 30.101563 39 L 45.0625 5.449219 C 45.135834 5.155884 45.171875 4.991745 45.171875 4.955078 C 45.171875 4.661743 45.081772 4.376564 44.898438 4.101563 C 44.715103 3.826561 44.474976 3.689453 44.181641 3.689453 L 36.648438 3.689453 L 20.917969 39 L 6.892578 39 Z"/>
</svg>
